<svg width="106" height="112" viewBox="0 0 106 112" fill="none" xmlns="http://www.w3.org/2000/svg">
<g id="Group">
<path id="Vector" d="M37.6593 9.66383C37.8076 9.62145 41.2196 7.43861 45.2462 4.78953C49.2728 2.16165 52.5789 0 52.6001 0C52.6425 0 62.0732 6.16705 73.5808 13.7116C85.1095 21.235 96.935 28.9915 105.264 34.438L96.3204 34.544V111.473H9.00686L8.9009 34.6499L0 34.438L23.1635 19.2217L23.2059 3.17889H37.405V6.46375C37.405 8.98567 37.4685 9.72741 37.6593 9.66383Z" fill="black"/>
<path id="Vector_2" d="M45.3521 31.4714C46.2846 31.3018 47.8104 31.0475 48.7429 30.9415C49.6754 30.8356 51.8158 30.7932 53.5112 30.8356C55.2066 30.878 57.6862 31.1111 59.0213 31.3442C60.3564 31.5773 62.6029 32.1071 64.0016 32.531C65.4003 32.9548 67.6891 33.8449 69.0878 34.5231C70.4865 35.1801 72.4998 36.2821 73.5383 36.9602C74.5767 37.6384 76.1026 38.7616 76.9291 39.4186C77.7556 40.0967 79.3238 41.5802 80.447 42.7246C81.5491 43.8902 82.9054 45.3949 83.4352 46.0943C83.965 46.7936 84.9611 48.2771 85.618 49.3791C86.2962 50.4811 87.2075 52.1553 87.6313 53.0878C88.0552 54.0203 88.6698 55.5038 88.9877 56.3727C89.3056 57.2416 89.793 58.9158 90.0897 60.0814C90.3652 61.247 90.7467 63.2815 90.9162 64.5954C91.0857 65.8882 91.2341 68.071 91.2341 69.4061C91.2341 70.7413 91.0857 72.9241 90.9162 74.238C90.7467 75.5308 90.3652 77.5653 90.0897 78.7309C89.793 79.8965 89.3056 81.5707 88.9877 82.4396C88.6698 83.3085 88.0552 84.792 87.6313 85.7244C87.2075 86.6569 86.381 88.1828 85.83 89.1153C85.2578 90.0477 84.3041 91.4676 83.7107 92.2942C83.1173 93.1207 82.0789 94.3922 81.4007 95.1552C80.7437 95.9181 79.3662 97.2744 78.349 98.1857C77.3317 99.097 75.4668 100.559 74.174 101.407C72.8813 102.276 70.6561 103.547 69.1938 104.226C67.7315 104.925 65.6334 105.794 64.5314 106.133C63.4294 106.493 61.5644 106.981 60.3988 107.214C59.2332 107.447 56.9868 107.765 55.4186 107.892C53.2145 108.083 51.9006 108.083 49.6966 107.892C48.1283 107.744 45.7335 107.404 44.3984 107.108C43.0633 106.811 41.2407 106.324 40.3718 106.027C39.5029 105.73 37.977 105.137 36.981 104.713C35.9849 104.268 34.2683 103.399 33.1663 102.742C32.0643 102.085 30.3477 100.941 29.3517 100.22C28.3556 99.4784 26.5966 97.9102 25.4098 96.7446C24.2442 95.579 22.7184 93.8624 21.9978 92.9299C21.2985 91.9975 20.3236 90.5987 19.8362 89.8146C19.3699 89.0093 18.607 87.6318 18.1408 86.7417C17.6957 85.8304 17.0811 84.4953 16.7632 83.7535C16.4665 83.033 15.9367 81.4647 15.5976 80.2779C15.2374 79.07 14.8135 77.2898 14.6228 76.2937C14.4532 75.2977 14.2201 73.348 14.1142 71.9492C13.987 70.4234 13.987 68.3677 14.1142 66.7994C14.2201 65.3795 14.4956 63.2391 14.7288 62.0523C14.9619 60.8443 15.4493 58.9158 15.8096 57.7502C16.1698 56.5846 17.0176 54.4865 17.6745 53.0878C18.3527 51.6891 19.3064 49.8877 19.815 49.0612C20.3024 48.2559 21.2985 46.8148 21.9978 45.8823C22.7184 44.9499 24.2442 43.2333 25.4098 42.0677C26.5966 40.9021 28.3556 39.3338 29.3517 38.5921C30.3477 37.8503 32.0643 36.7059 33.1663 36.0702C34.2683 35.4132 36.2181 34.4383 37.5108 33.8873C38.8036 33.3575 40.7109 32.6581 41.7493 32.3614C42.7878 32.0647 44.4196 31.6621 45.3521 31.4714Z" fill="white"/>
<g id="Vector_3">
<path d="M52.6637 61.4589L52.7061 50.4175L52.7272 39.355L54.8677 39.5033C56.0545 39.5669 58.0678 39.8848 59.3393 40.1603C60.6321 40.457 62.6242 41.0928 63.7898 41.559C64.9554 42.0252 66.7779 42.9153 67.8164 43.5299C68.876 44.1657 70.4443 45.2465 71.3132 45.9459C72.1821 46.6452 73.2629 47.5989 74.5132 48.8493L64.4891 54.656C58.9791 57.8561 54.0624 60.6747 52.6637 61.4589Z" fill="black"/>
<path d="M38.9097 42.7458C39.8845 42.216 41.7071 41.453 42.9363 41.0292C44.1442 40.6265 45.3098 40.2875 45.5218 40.2875C45.882 40.2875 45.9032 41.008 45.9032 52.7911C45.9032 60.9714 45.8185 65.2947 45.6913 65.2947C45.5641 65.2947 41.2197 62.8364 26.5968 54.3805L26.957 53.8507C27.1478 53.554 27.8471 52.558 28.4829 51.6467C29.1399 50.7354 30.6869 49.0188 31.9161 47.832C33.1453 46.6452 34.7983 45.2465 35.6248 44.6955C36.4301 44.1445 37.9136 43.2756 38.9097 42.7458Z" fill="black"/>
<path d="M59.2122 65.6974C59.191 65.6338 63.4931 63.0907 68.7912 60.039C74.0894 56.9872 78.4975 54.4865 78.5822 54.4865C78.667 54.4865 79.0909 55.1647 79.5147 56.0124C79.9386 56.8601 80.6379 58.6403 81.083 59.9966C81.528 61.3317 82.0366 63.2814 82.2274 64.3411C82.4181 65.4855 82.5664 67.4988 82.5664 69.4273C82.5664 71.2922 82.4181 73.3267 82.2486 74.4076C82.0578 75.3824 81.7823 76.6964 81.6128 77.311C81.422 77.9255 81.2101 78.3918 81.1042 78.3706C81.0194 78.3494 76.0603 75.5096 70.084 72.0764C64.1289 68.622 59.2334 65.761 59.2122 65.6974Z" fill="black"/>
<path d="M23.0788 64.0232C23.2907 63.0271 23.545 61.9039 23.6722 61.5225C23.7781 61.141 23.9477 60.8443 24.0324 60.8443C24.096 60.8443 29.0127 63.6205 34.9255 67.0325C40.8382 70.4445 45.6701 73.2844 45.6701 73.3479C45.6913 73.3903 41.474 75.8699 36.3242 78.858C31.1955 81.825 26.8935 84.2833 26.7875 84.3045C26.6815 84.3257 26.3848 83.9442 26.0881 83.4568C25.8126 82.9694 25.2404 81.6554 24.7954 80.5534C24.3715 79.4302 23.8841 78.0951 23.7358 77.5865C23.5874 77.0566 23.2907 75.8063 23.1 74.8314C22.8245 73.5175 22.7185 72.034 22.7185 69.4273C22.7185 66.8206 22.8245 65.3159 23.0788 64.0232Z" fill="black"/>
<path d="M59.7208 98.5671C59.5089 98.5671 59.4665 95.9604 59.4665 86.2754C59.4665 79.515 59.5301 73.9625 59.6148 73.9625C59.6996 73.9625 63.3447 76.0182 67.7316 78.5401C72.0973 81.062 76.2722 83.478 76.9928 83.9019C77.7345 84.3257 78.3279 84.7496 78.3279 84.8343C78.3279 84.9191 77.8193 85.7244 77.2047 86.6357C76.6113 87.547 75.0643 89.3272 73.7715 90.6199C72.4788 91.8915 70.7198 93.4385 69.8509 94.0319C68.9608 94.6253 67.3078 95.6002 66.1422 96.1936C64.9766 96.787 63.1116 97.5499 62.0096 97.9102C60.8864 98.2704 59.8692 98.5671 59.7208 98.5671Z" fill="black"/>
<path d="M32.4459 88.9457C33.3784 88.4159 38.2315 85.5973 43.233 82.6939C48.2344 79.7905 52.4094 77.4593 52.5153 77.5229C52.6425 77.5653 52.7061 82.1005 52.6849 99.5208L50.608 99.3725C49.4636 99.2877 47.7894 99.0758 46.8569 98.885C45.9244 98.6943 44.1442 98.1857 42.9363 97.783C41.7071 97.3804 39.8845 96.6174 38.9097 96.0876C37.9136 95.5578 36.4301 94.6889 35.6248 94.1379C34.8195 93.6081 33.3784 92.4213 30.7505 89.9206L32.4459 88.9457Z" fill="black"/>
</g>
</g>
</svg>
