<svg width="112" height="112" viewBox="0 0 112 112" fill="none" xmlns="http://www.w3.org/2000/svg">
<path id="Vector" d="M55.9999 0C25.2 0 0 25.144 0 56.1119C0 84.1119 20.496 107.352 47.2639 111.552V72.3519H33.04V56.1119H47.2639V43.7359C47.2639 29.68 55.6079 21.952 68.4319 21.952C74.5359 21.952 80.9199 23.016 80.9199 23.016V36.8479H73.8639C66.9199 36.8479 64.7359 41.16 64.7359 45.5839V56.1119H80.3039L77.7839 72.3519H64.7359V111.552C77.932 109.468 89.9482 102.735 98.6155 92.5682C107.283 82.4017 112.03 69.4715 112 56.1119C112 25.144 86.7999 0 55.9999 0Z" fill="white"/>
</svg>
