<svg width="112" height="112" viewBox="0 0 112 112" fill="none" xmlns="http://www.w3.org/2000/svg">
<path id="Vector" d="M32.48 0H79.52C97.44 0 112 14.56 112 32.48V79.52C112 88.1342 108.578 96.3956 102.487 102.487C96.3956 108.578 88.1342 112 79.52 112H32.48C14.56 112 0 97.44 0 79.52V32.48C0 23.8658 3.42199 15.6044 9.51317 9.51317C15.6044 3.42199 23.8658 0 32.48 0ZM31.36 11.2C26.0132 11.2 20.8855 13.324 17.1047 17.1047C13.324 20.8855 11.2 26.0132 11.2 31.36V80.64C11.2 91.784 20.216 100.8 31.36 100.8H80.64C85.9868 100.8 91.1145 98.676 94.8953 94.8953C98.676 91.1145 100.8 85.9868 100.8 80.64V31.36C100.8 20.216 91.784 11.2 80.64 11.2H31.36ZM85.4 19.6C87.2565 19.6 89.037 20.3375 90.3498 21.6503C91.6625 22.963 92.4 24.7435 92.4 26.6C92.4 28.4565 91.6625 30.237 90.3498 31.5497C89.037 32.8625 87.2565 33.6 85.4 33.6C83.5435 33.6 81.763 32.8625 80.4502 31.5497C79.1375 30.237 78.4 28.4565 78.4 26.6C78.4 24.7435 79.1375 22.963 80.4502 21.6503C81.763 20.3375 83.5435 19.6 85.4 19.6ZM56 28C63.4261 28 70.548 30.95 75.799 36.201C81.05 41.452 84 48.5739 84 56C84 63.4261 81.05 70.548 75.799 75.799C70.548 81.05 63.4261 84 56 84C48.5739 84 41.452 81.05 36.201 75.799C30.95 70.548 28 63.4261 28 56C28 48.5739 30.95 41.452 36.201 36.201C41.452 30.95 48.5739 28 56 28ZM56 39.2C51.5444 39.2 47.2712 40.97 44.1206 44.1206C40.97 47.2712 39.2 51.5444 39.2 56C39.2 60.4556 40.97 64.7288 44.1206 67.8794C47.2712 71.03 51.5444 72.8 56 72.8C60.4556 72.8 64.7288 71.03 67.8794 67.8794C71.03 64.7288 72.8 60.4556 72.8 56C72.8 51.5444 71.03 47.2712 67.8794 44.1206C64.7288 40.97 60.4556 39.2 56 39.2Z" fill="white"/>
</svg>
