<svg width="92" height="92" viewBox="0 0 92 92" fill="none" xmlns="http://www.w3.org/2000/svg">
<path d="M0 92V46V0H92V92H0Z" fill="white"/>
<path d="M35.1439 10.5187C35.2513 10.488 37.7199 8.90867 40.6333 6.99201C43.5466 5.09067 45.9386 3.52667 45.9539 3.52667C45.9846 3.52667 52.8079 7.98867 61.1339 13.4473C69.4753 18.8907 78.0313 24.5027 84.0573 28.4433L77.5866 28.52V84.18H14.4133L14.3366 28.5967L7.89661 28.4433L24.6559 17.434L24.6866 5.82667H34.9599V8.20334C34.9599 10.028 35.0059 10.5647 35.1439 10.5187Z" fill="black"/>
<path d="M40.71 26.2966C41.3847 26.174 42.4887 25.99 43.1633 25.9133C43.838 25.8366 45.3867 25.806 46.6133 25.8366C47.84 25.8673 49.634 26.036 50.6 26.2046C51.566 26.3733 53.1913 26.7566 54.2033 27.0633C55.2153 27.37 56.8713 28.014 57.8833 28.5046C58.8953 28.98 60.352 29.7773 61.1033 30.268C61.8547 30.7586 62.9587 31.5713 63.5567 32.0466C64.1547 32.5373 65.2893 33.6106 66.102 34.4386C66.8993 35.282 67.8807 36.3706 68.264 36.8766C68.6473 37.3826 69.368 38.456 69.8433 39.2533C70.334 40.0506 70.9933 41.262 71.3 41.9366C71.6067 42.6113 72.0513 43.6846 72.2813 44.3133C72.5113 44.942 72.864 46.1533 73.0787 46.9966C73.278 47.84 73.554 49.312 73.6767 50.2626C73.7993 51.198 73.9067 52.7773 73.9067 53.7433C73.9067 54.7093 73.7993 56.2886 73.6767 57.2393C73.554 58.1746 73.278 59.6466 73.0787 60.49C72.864 61.3333 72.5113 62.5446 72.2813 63.1733C72.0513 63.802 71.6067 64.8753 71.3 65.55C70.9933 66.2246 70.3953 67.3286 69.9967 68.0033C69.5827 68.678 68.8927 69.7053 68.4633 70.3033C68.034 70.9013 67.2827 71.8213 66.792 72.3733C66.3167 72.9253 65.32 73.9066 64.584 74.566C63.848 75.2253 62.4987 76.2833 61.5633 76.8966C60.628 77.5253 59.018 78.4453 57.96 78.936C56.902 79.442 55.384 80.0706 54.5867 80.316C53.7893 80.5766 52.44 80.9293 51.5967 81.098C50.7533 81.2666 49.128 81.4966 47.9933 81.5886C46.3987 81.7266 45.448 81.7266 43.8533 81.5886C42.7187 81.4813 40.986 81.236 40.02 81.0213C39.054 80.8066 37.7353 80.454 37.1067 80.2393C36.478 80.0246 35.374 79.5953 34.6533 79.2886C33.9327 78.9666 32.6907 78.338 31.8933 77.8626C31.096 77.3873 29.854 76.5593 29.1333 76.038C28.4127 75.5013 27.14 74.3666 26.2813 73.5233C25.438 72.68 24.334 71.438 23.8127 70.7633C23.3067 70.0886 22.6013 69.0766 22.2487 68.5093C21.9113 67.9266 21.3593 66.93 21.022 66.286C20.7 65.6266 20.2553 64.6606 20.0253 64.124C19.8107 63.6026 19.4273 62.468 19.182 61.6093C18.9213 60.7353 18.6147 59.4473 18.4767 58.7266C18.354 58.006 18.1853 56.5953 18.1087 55.5833C18.0167 54.4793 18.0167 52.992 18.1087 51.8573C18.1853 50.83 18.3847 49.2813 18.5533 48.4226C18.722 47.5486 19.0747 46.1533 19.3353 45.31C19.596 44.4666 20.2093 42.9486 20.6847 41.9366C21.1753 40.9246 21.8653 39.6213 22.2333 39.0233C22.586 38.4406 23.3067 37.398 23.8127 36.7233C24.334 36.0486 25.438 34.8066 26.2813 33.9633C27.14 33.12 28.4127 31.9853 29.1333 31.4486C29.854 30.912 31.096 30.084 31.8933 29.624C32.6907 29.1486 34.1013 28.4433 35.0367 28.0446C35.972 27.6613 37.352 27.1553 38.1033 26.9406C38.8547 26.726 40.0353 26.4346 40.71 26.2966Z" fill="white"/>
<path d="M46 47.9933L46.0306 40.0047L46.046 32.0007L47.5946 32.108C48.4533 32.154 49.91 32.384 50.83 32.5833C51.7653 32.798 53.2066 33.258 54.05 33.5953C54.8933 33.9327 56.212 34.5767 56.9633 35.0213C57.73 35.4813 58.8646 36.2633 59.4933 36.7693C60.122 37.2753 60.904 37.9653 61.8086 38.87L54.556 43.0713C50.5693 45.3867 47.012 47.426 46 47.9933Z" fill="black"/>
<path d="M36.0487 34.454C36.754 34.0707 38.0726 33.5187 38.962 33.212C39.836 32.9207 40.6793 32.6753 40.8326 32.6753C41.0933 32.6753 41.1087 33.1967 41.1087 41.722C41.1087 47.6407 41.0473 50.7687 40.9553 50.7687C40.8633 50.7687 37.72 48.99 27.14 42.872L27.4007 42.4887C27.5387 42.274 28.0447 41.5533 28.5047 40.894C28.98 40.2347 30.0993 38.9927 30.9887 38.134C31.878 37.2753 33.074 36.2633 33.672 35.8647C34.2547 35.466 35.328 34.8373 36.0487 34.454Z" fill="black"/>
<path d="M50.738 51.06C50.7226 51.014 53.8353 49.174 57.6686 46.966C61.502 44.758 64.6913 42.9487 64.7526 42.9487C64.814 42.9487 65.1206 43.4393 65.4273 44.0527C65.734 44.666 66.24 45.954 66.562 46.9353C66.884 47.9013 67.252 49.312 67.39 50.0787C67.528 50.9067 67.6353 52.3633 67.6353 53.7587C67.6353 55.108 67.528 56.58 67.4053 57.362C67.2673 58.0673 67.068 59.018 66.9453 59.4627C66.8073 59.9073 66.654 60.2447 66.5773 60.2293C66.516 60.214 62.928 58.1593 58.604 55.6753C54.2953 53.176 50.7533 51.106 50.738 51.06Z" fill="black"/>
<path d="M24.5947 49.8487C24.748 49.128 24.932 48.3153 25.024 48.0393C25.1007 47.7633 25.2233 47.5487 25.2847 47.5487C25.3307 47.5487 28.888 49.5573 33.166 52.026C37.444 54.4947 40.94 56.5493 40.94 56.5953C40.9553 56.626 37.904 58.42 34.178 60.582C30.4673 62.7287 27.3547 64.5073 27.278 64.5227C27.2013 64.538 26.9867 64.262 26.772 63.9093C26.5727 63.5567 26.1587 62.606 25.8367 61.8087C25.53 60.996 25.1773 60.03 25.07 59.662C24.9627 59.2787 24.748 58.374 24.61 57.6687C24.4107 56.718 24.334 55.6447 24.334 53.7587C24.334 51.8727 24.4107 50.784 24.5947 49.8487Z" fill="black"/>
<path d="M51.106 74.842C50.9527 74.842 50.922 72.956 50.922 65.9487C50.922 61.0573 50.968 57.04 51.0293 57.04C51.0907 57.04 53.728 58.5273 56.902 60.352C60.0606 62.1767 63.0813 63.9247 63.6026 64.2313C64.1393 64.538 64.5686 64.8447 64.5686 64.906C64.5686 64.9673 64.2006 65.55 63.756 66.2093C63.3266 66.8687 62.2073 68.1567 61.272 69.092C60.3366 70.012 59.064 71.1313 58.4353 71.5607C57.7913 71.99 56.5953 72.6953 55.752 73.1247C54.9086 73.554 53.5593 74.106 52.762 74.3667C51.9493 74.6273 51.2133 74.842 51.106 74.842Z" fill="black"/>
<path d="M31.372 67.8807C32.0467 67.4973 35.558 65.458 39.1767 63.3573C42.7953 61.2567 45.816 59.57 45.8927 59.616C45.9846 59.6467 46.0306 62.928 46.0153 75.532L44.5126 75.4247C43.6847 75.3633 42.4733 75.21 41.7987 75.072C41.124 74.934 39.836 74.566 38.962 74.2747C38.0726 73.9833 36.754 73.4313 36.0487 73.048C35.328 72.6647 34.2547 72.036 33.672 71.6373C33.0893 71.254 32.0467 70.3953 30.1453 68.586L31.372 67.8807Z" fill="black"/>
</svg>
