<svg width="58" height="61" viewBox="0 0 58 61" fill="none" xmlns="http://www.w3.org/2000/svg">
<g id="white icon">
<g id="Exclude">
<path fill-rule="evenodd" clip-rule="evenodd" d="M25.0709 3.54802C22.9287 4.95732 21.1135 6.11858 21.0346 6.14113C20.9332 6.17495 20.8993 5.78035 20.8993 4.4387V2.69116H13.3455L13.3229 11.2259L1 19.3209L5.73525 19.4337L5.79163 60.3034H52.2422V19.3773L57 19.3209C55.4764 18.3246 53.7329 17.183 51.8515 15.9511C48.2614 13.6003 44.1691 10.9207 40.1448 8.29454C34.0228 4.28085 29.0056 1 28.9831 1C28.974 1 27.8324 1.7453 26.2699 2.76531C25.8916 3.01233 25.4885 3.27546 25.0709 3.54802ZM25.0981 17.1359C25.5941 17.0457 26.4059 16.9104 26.902 16.8541C27.3981 16.7977 28.5368 16.7752 29.4387 16.7977C30.3407 16.8203 31.6598 16.9443 32.3701 17.0683C33.0804 17.1923 34.2754 17.4742 35.0196 17.6997C35.7637 17.9251 36.9813 18.3987 37.7254 18.7594C38.4695 19.109 39.5406 19.6952 40.093 20.056C40.6455 20.4168 41.4572 21.0143 41.8969 21.3638C42.3366 21.7246 43.171 22.5138 43.7685 23.1226C44.3548 23.7427 45.0763 24.5432 45.3582 24.9153C45.6401 25.2873 46.17 26.0765 46.5195 26.6628C46.8802 27.2491 47.365 28.1398 47.5905 28.6358C47.816 29.1319 48.143 29.9211 48.3121 30.3834C48.4812 30.8456 48.7405 31.7363 48.8984 32.3564C49.0449 32.9765 49.2479 34.0588 49.3381 34.7578C49.4283 35.4456 49.5072 36.6068 49.5072 37.3171C49.5072 38.0274 49.4283 39.1887 49.3381 39.8877C49.2479 40.5754 49.0449 41.6578 48.8984 42.2779C48.7405 42.898 48.4812 43.7886 48.3121 44.2509C48.143 44.7131 47.816 45.5023 47.5905 45.9984C47.365 46.4945 46.9253 47.3063 46.6322 47.8023C46.3278 48.2984 45.8204 49.0538 45.5048 49.4935C45.1891 49.9332 44.6366 50.6097 44.2758 51.0155C43.9263 51.4214 43.1935 52.143 42.6523 52.6278C42.1112 53.1126 41.119 53.8905 40.4313 54.3415C39.7435 54.8037 38.5597 55.4802 37.7818 55.841C37.0039 56.213 35.8877 56.6753 35.3014 56.8557C34.7151 57.0473 33.723 57.3067 33.1029 57.4307C32.4828 57.5547 31.2877 57.7238 30.4534 57.7915C29.2809 57.8929 28.5819 57.8929 27.4093 57.7915C26.575 57.7125 25.301 57.5322 24.5907 57.3743C23.8804 57.2165 22.9108 56.9572 22.4486 56.7993C21.9863 56.6415 21.1746 56.3258 20.6447 56.1003C20.1148 55.8635 19.2016 55.4013 18.6153 55.0518C18.029 54.7023 17.1158 54.0935 16.5859 53.7101C16.056 53.3155 15.1202 52.4812 14.4889 51.8611C13.8688 51.241 13.057 50.3278 12.6737 49.8317C12.3016 49.3356 11.783 48.5915 11.5237 48.1744C11.2756 47.746 10.8698 47.0131 10.6217 46.5396C10.385 46.0548 10.058 45.3445 9.88889 44.9499C9.73105 44.5666 9.44919 43.7323 9.2688 43.1009C9.07713 42.4583 8.85165 41.5112 8.75018 40.9813C8.65998 40.4514 8.53596 39.4142 8.47959 38.6701C8.41194 37.8583 8.41194 36.7647 8.47959 35.9304C8.53596 35.175 8.68253 34.0363 8.80655 33.4049C8.93057 32.7623 9.18988 31.7363 9.38154 31.1162C9.57321 30.4961 10.0242 29.3799 10.3737 28.6358C10.7345 27.8917 11.2418 26.9334 11.5124 26.4937C11.7717 26.0653 12.3016 25.2986 12.6737 24.8025C13.057 24.3065 13.8688 23.3932 14.4889 22.7731C15.1202 22.153 16.056 21.3187 16.5859 20.9241C17.1158 20.5295 18.029 19.9207 18.6153 19.5825C19.2016 19.233 20.2388 18.7144 20.9265 18.4212C21.6143 18.1394 22.629 17.7673 23.1814 17.6095C23.7339 17.4516 24.602 17.2374 25.0981 17.1359ZM28.9877 33.0892L29.0103 27.2153L29.0216 21.33L30.1603 21.409C30.7917 21.4428 31.8627 21.6119 32.5392 21.7585C33.2269 21.9163 34.2867 22.2545 34.9068 22.5026C35.5269 22.7506 36.4965 23.2241 37.049 23.5511C37.6127 23.8893 38.447 24.4643 38.9092 24.8364C39.3715 25.2084 39.9465 25.7158 40.6117 26.381L35.2789 29.4702C32.3475 31.1726 29.7319 32.6721 28.9877 33.0892ZM21.6707 23.1339C22.1893 22.8521 23.1589 22.4462 23.8128 22.2207C24.4554 22.0065 25.0755 21.8261 25.1883 21.8261C25.3799 21.8261 25.3912 22.2094 25.3912 28.478C25.3912 32.8299 25.3461 35.1299 25.2785 35.1299C25.2108 35.1299 22.8996 33.8221 15.1202 29.3236L15.3119 29.0417C15.3953 28.912 15.6613 28.5312 15.9412 28.1305L16.1236 27.8692C16.4732 27.3844 17.2962 26.4712 17.9501 25.8398C18.604 25.2084 19.4834 24.4643 19.9231 24.1712C20.3515 23.8781 21.1408 23.4158 21.6707 23.1339ZM37.5676 32.3339C34.749 33.9574 32.4603 35.3103 32.4715 35.3441C32.4828 35.378 35.0872 36.9 38.2553 38.7377C41.4347 40.5642 44.0729 42.075 44.118 42.0862C44.1744 42.0975 44.2871 41.8495 44.3886 41.5225C44.4788 41.1955 44.6254 40.4965 44.7268 39.9779C44.817 39.4029 44.8959 38.3206 44.8959 37.3284C44.8959 36.3025 44.817 35.2314 44.7155 34.6226C44.6141 34.0588 44.3435 33.0216 44.1067 32.3113C43.87 31.5897 43.4979 30.6427 43.2724 30.1917C43.0469 29.7407 42.8214 29.38 42.7764 29.38C42.7313 29.38 40.3862 30.7103 37.5676 32.3339ZM13.2487 34.4534C13.3614 33.9236 13.4967 33.326 13.5644 33.1231C13.6207 32.9201 13.7109 32.7623 13.756 32.7623C13.7898 32.7623 16.4055 34.2392 19.5511 36.0544C22.6966 37.8696 25.2672 39.3804 25.2672 39.4142C25.2785 39.4367 23.0349 40.7558 20.2952 42.3455C17.5668 43.924 15.2781 45.2318 15.2217 45.2431C15.1653 45.2543 15.0075 45.0514 14.8496 44.7921C14.7031 44.5328 14.3987 43.8338 14.1619 43.2475C13.9364 42.6499 13.6771 41.9397 13.5982 41.6691C13.5193 41.3872 13.3614 40.722 13.2599 40.2034C13.1134 39.5044 13.057 38.7152 13.057 37.3284C13.057 35.9417 13.1134 35.1412 13.2487 34.4534ZM32.6068 46.2916C32.6068 51.444 32.6294 52.8307 32.7421 52.8307C32.821 52.8307 33.3622 52.6729 33.9598 52.4812C34.546 52.2896 35.5382 51.8837 36.1583 51.568C36.7784 51.2523 37.6578 50.7337 38.1313 50.418C38.5935 50.1023 39.5293 49.2793 40.2171 48.6028C40.9048 47.9151 41.7278 46.968 42.0435 46.4832C42.3705 45.9984 42.6411 45.57 42.6411 45.5249C42.6411 45.4798 42.3254 45.2543 41.9308 45.0288C41.5474 44.8034 39.3264 43.5181 37.0039 42.1764C34.6701 40.8348 32.7309 39.7411 32.6858 39.7411C32.6407 39.7411 32.6068 42.695 32.6068 46.2916ZM23.2059 44.8301L23.2079 44.829L23.9706 44.3862C26.6314 42.8416 28.8525 41.6014 28.9088 41.6353C28.9765 41.6578 29.0103 44.0705 28.999 53.3381L27.8941 53.2592C27.2853 53.2141 26.3946 53.1013 25.8986 52.9999C25.4025 52.8984 24.4554 52.6278 23.8128 52.4136C23.1589 52.1994 22.1893 51.7935 21.6707 51.5116C21.1408 51.2298 20.3515 50.7675 19.9231 50.4744C19.4947 50.1925 18.728 49.5612 17.33 48.2308L18.232 47.7122C18.6802 47.4575 20.8313 46.2087 23.2049 44.8307L23.2059 44.8301Z" fill="white"/>
<path d="M21.0346 6.14113L21.0135 6.06735L21.0104 6.0684L21.0346 6.14113ZM25.0709 3.54802L25.029 3.48381L25.0287 3.48397L25.0709 3.54802ZM20.8993 2.69116H20.976V2.61449H20.8993V2.69116ZM13.3455 2.69116V2.61449H13.269L13.2688 2.69096L13.3455 2.69116ZM13.3229 11.2259L13.365 11.29L13.3995 11.2673L13.3996 11.2261L13.3229 11.2259ZM1 19.3209L0.957907 19.2568L0.752588 19.3917L0.998175 19.3976L1 19.3209ZM5.73525 19.4337L5.81192 19.4336L5.81182 19.3588L5.73708 19.357L5.73525 19.4337ZM5.79163 60.3034L5.71496 60.3035L5.71506 60.3801H5.79163V60.3034ZM52.2422 60.3034V60.3801H52.3189V60.3034H52.2422ZM52.2422 19.3773L52.2413 19.3006L52.1655 19.3015V19.3773H52.2422ZM57 19.3209L57.0009 19.3976L57.2527 19.3946L57.042 19.2568L57 19.3209ZM51.8515 15.9511L51.8095 16.0152H51.8095L51.8515 15.9511ZM40.1448 8.29454L40.1027 8.35866L40.1029 8.35875L40.1448 8.29454ZM26.2699 2.76531L26.228 2.70111L26.2699 2.76531ZM26.902 16.8541L26.9106 16.9303L26.902 16.8541ZM25.0981 17.1359L25.0844 17.0605L25.0827 17.0608L25.0981 17.1359ZM29.4387 16.7977L29.4368 16.8743L29.4387 16.7977ZM32.3701 17.0683L32.3833 16.9928L32.3701 17.0683ZM35.0196 17.6997L35.0418 17.6263L35.0196 17.6997ZM37.7254 18.7594L37.692 18.8284L37.6928 18.8288L37.7254 18.7594ZM40.093 20.056L40.135 19.9918L40.093 20.056ZM41.8969 21.3638L41.9456 21.3046L41.9447 21.3038L41.8969 21.3638ZM43.7685 23.1226L43.8242 23.07L43.8232 23.0689L43.7685 23.1226ZM45.3582 24.9153L45.4193 24.869L45.3582 24.9153ZM46.5195 26.6628L46.4536 26.7021L46.4542 26.703L46.5195 26.6628ZM48.3121 30.3834L48.3841 30.357V30.357L48.3121 30.3834ZM48.8984 32.3564L48.973 32.3388L48.9727 32.3375L48.8984 32.3564ZM49.3381 34.7578L49.262 34.7677L49.262 34.7678L49.3381 34.7578ZM49.3381 39.8877L49.4141 39.8977L49.4141 39.8975L49.3381 39.8877ZM48.8984 42.2779L48.9727 42.2968L48.973 42.2955L48.8984 42.2779ZM48.3121 44.2509L48.3841 44.2772L48.3121 44.2509ZM47.5905 45.9984L47.6603 46.0301L47.5905 45.9984ZM46.6322 47.8023L46.6976 47.8424L46.6982 47.8413L46.6322 47.8023ZM45.5048 49.4935L45.567 49.5382L45.5048 49.4935ZM44.2758 51.0155L44.2185 50.9646L44.2178 50.9655L44.2758 51.0155ZM42.6523 52.6278L42.6012 52.5707V52.5707L42.6523 52.6278ZM40.4313 54.3415L40.3892 54.2774L40.3885 54.2779L40.4313 54.3415ZM37.7818 55.841L37.7495 55.7714L37.7487 55.7718L37.7818 55.841ZM35.3014 56.8557L35.2789 56.7824L35.2776 56.7828L35.3014 56.8557ZM33.1029 57.4307L33.1179 57.5059H33.1179L33.1029 57.4307ZM30.4534 57.7915L30.4472 57.715L30.4468 57.7151L30.4534 57.7915ZM27.4093 57.7915L27.4021 57.8678L27.4027 57.8678L27.4093 57.7915ZM22.4486 56.7993L22.4734 56.7268L22.4486 56.7993ZM20.6447 56.1003L20.6134 56.1703L20.6147 56.1708L20.6447 56.1003ZM16.5859 53.7101L16.5401 53.7716L16.541 53.7722L16.5859 53.7101ZM14.4889 51.8611L14.4346 51.9153L14.4351 51.9158L14.4889 51.8611ZM12.6737 49.8317L12.6123 49.8777L12.613 49.8786L12.6737 49.8317ZM11.5237 48.1744L11.4573 48.2128L11.4586 48.2149L11.5237 48.1744ZM10.6217 46.5396L10.5528 46.5733L10.5538 46.5752L10.6217 46.5396ZM9.88889 44.9499L9.81799 44.9791L9.81842 44.9801L9.88889 44.9499ZM9.2688 43.1009L9.34252 43.0798L9.34227 43.079L9.2688 43.1009ZM8.75018 40.9813L8.67458 40.9942L8.67488 40.9957L8.75018 40.9813ZM8.47959 38.6701L8.55604 38.6643L8.55599 38.6637L8.47959 38.6701ZM8.47959 35.9304L8.55601 35.9366L8.55605 35.9361L8.47959 35.9304ZM8.80655 33.4049L8.88178 33.4197L8.88183 33.4194L8.80655 33.4049ZM9.38154 31.1162L9.3083 31.0936L9.38154 31.1162ZM10.3737 28.6358L10.3047 28.6024L10.3043 28.6032L10.3737 28.6358ZM11.5124 26.4937L11.5777 26.5339L11.578 26.5334L11.5124 26.4937ZM12.6737 24.8025L12.613 24.7556L12.6123 24.7565L12.6737 24.8025ZM14.4889 22.7731L14.4351 22.7184L14.4346 22.7189L14.4889 22.7731ZM16.5859 20.9241L16.5401 20.8626L16.5859 20.9241ZM18.6153 19.5825L18.6536 19.6489L18.6545 19.6483L18.6153 19.5825ZM20.9265 18.4212L20.8975 18.3503L20.8965 18.3507L20.9265 18.4212ZM29.0103 27.2153L29.087 27.2156V27.2154L29.0103 27.2153ZM28.9877 33.0892L28.9111 33.089L28.9106 33.2204L29.0252 33.1561L28.9877 33.0892ZM29.0216 21.33L29.0269 21.2536L28.9451 21.2479L28.9449 21.3299L29.0216 21.33ZM30.1603 21.409L30.155 21.4854L30.1562 21.4855L30.1603 21.409ZM32.5392 21.7585L32.5563 21.6837L32.5554 21.6835L32.5392 21.7585ZM34.9068 22.5026L34.8783 22.5738V22.5738L34.9068 22.5026ZM37.049 23.5511L37.0884 23.4853L37.088 23.4851L37.049 23.5511ZM38.9092 24.8364L38.8612 24.8961L38.9092 24.8364ZM40.6117 26.381L40.6501 26.4473L40.7364 26.3973L40.6659 26.3268L40.6117 26.381ZM35.2789 29.4702L35.2404 29.4038L35.2404 29.4039L35.2789 29.4702ZM23.8128 22.2207L23.7885 22.148L23.7878 22.1482L23.8128 22.2207ZM21.6707 23.1339L21.7067 23.2016L21.7073 23.2013L21.6707 23.1339ZM15.1202 29.3236L15.0568 29.2805L15.0105 29.3487L15.0818 29.39L15.1202 29.3236ZM15.3119 29.0417L15.3753 29.0849L15.3764 29.0832L15.3119 29.0417ZM15.9411 28.1307L16.0039 28.1746L16.0043 28.1741L15.9411 28.1307ZM15.9412 28.1305L15.8783 28.0866L15.878 28.0871L15.9412 28.1305ZM16.1236 27.8692L16.0614 27.8244L16.0608 27.8253L16.1236 27.8692ZM17.9501 25.8398L17.8968 25.7846H17.8968L17.9501 25.8398ZM19.9231 24.1712L19.9657 24.235L19.9664 24.2345L19.9231 24.1712ZM32.4715 35.3441L32.3988 35.3684V35.3684L32.4715 35.3441ZM37.5676 32.3339L37.5293 32.2674L37.5676 32.3339ZM38.2553 38.7377L38.2168 38.804L38.2171 38.8042L38.2553 38.7377ZM44.118 42.0862L44.0994 42.1607L44.103 42.1614L44.118 42.0862ZM44.3886 41.5225L44.4618 41.5452L44.4625 41.5429L44.3886 41.5225ZM44.7268 39.9779L44.8021 39.9926L44.8026 39.9898L44.7268 39.9779ZM44.7155 34.6226L44.7912 34.61L44.791 34.609L44.7155 34.6226ZM44.1067 32.3113L44.0339 32.3352L44.034 32.3356L44.1067 32.3113ZM43.2724 30.1917L43.341 30.1574L43.2724 30.1917ZM13.5644 33.1231L13.6372 33.1473L13.6382 33.1436L13.5644 33.1231ZM13.2487 34.4534L13.1737 34.4375L13.1734 34.4387L13.2487 34.4534ZM19.5511 36.0544L19.5127 36.1208L19.5511 36.0544ZM25.2672 39.4142H25.1905V39.4323L25.1986 39.4485L25.2672 39.4142ZM20.2952 42.3455L20.3336 42.4119L20.3337 42.4118L20.2952 42.3455ZM15.2217 45.2431L15.2367 45.3182L15.2367 45.3182L15.2217 45.2431ZM14.8496 44.7921L14.7829 44.8298L14.7841 44.8319L14.8496 44.7921ZM14.1619 43.2475L14.0901 43.2746L14.0908 43.2762L14.1619 43.2475ZM13.5982 41.6691L13.5243 41.6897L13.5246 41.6905L13.5982 41.6691ZM13.2599 40.2034L13.3352 40.1887L13.335 40.1877L13.2599 40.2034ZM33.9598 52.4812L33.9832 52.5542L33.9836 52.5541L33.9598 52.4812ZM36.1583 51.568L36.1235 51.4997L36.1583 51.568ZM38.1313 50.418L38.1738 50.4818L38.1745 50.4813L38.1313 50.418ZM40.2171 48.6028L40.2708 48.6575L40.2713 48.657L40.2171 48.6028ZM42.0435 46.4832L41.9799 46.4404L41.9793 46.4414L42.0435 46.4832ZM41.9308 45.0288L41.8919 45.0949L41.8927 45.0954L41.9308 45.0288ZM37.0039 42.1764L37.0422 42.11L37.0421 42.11L37.0039 42.1764ZM23.2079 44.829L23.2464 44.8953L23.2464 44.8953L23.2079 44.829ZM23.2059 44.8301L23.2442 44.8966L23.2444 44.8965L23.2059 44.8301ZM23.9706 44.3862L23.9321 44.3199L23.9706 44.3862ZM28.9088 41.6353L28.8694 41.701L28.8766 41.7053L28.8846 41.708L28.9088 41.6353ZM28.999 53.3381L28.9936 53.4146L29.0756 53.4204L29.0757 53.3382L28.999 53.3381ZM27.8941 53.2592L27.8885 53.3356L27.8887 53.3356L27.8941 53.2592ZM25.8986 52.9999L25.9139 52.9247L25.8986 52.9999ZM23.8128 52.4136L23.837 52.3409L23.8367 52.3407L23.8128 52.4136ZM21.6707 51.5116L21.7073 51.4443L21.7067 51.4439L21.6707 51.5116ZM19.9231 50.4744L19.9664 50.4111L19.9653 50.4103L19.9231 50.4744ZM17.33 48.2308L17.2918 48.1643L17.2028 48.2155L17.2772 48.2863L17.33 48.2308ZM18.232 47.7122L18.1941 47.6455L18.1937 47.6457L18.232 47.7122ZM23.2049 44.8307L23.1666 44.7643L23.1664 44.7644L23.2049 44.8307ZM21.0557 6.21485C21.0658 6.21195 21.0758 6.20705 21.0813 6.20431C21.0886 6.20069 21.0971 6.1961 21.1067 6.19079C21.1259 6.18013 21.1512 6.16534 21.1822 6.14685C21.2442 6.10981 21.3304 6.05678 21.4379 5.98966C21.6531 5.85536 21.9546 5.66385 22.3204 5.42913C23.0522 4.95965 24.0417 4.31685 25.113 3.61207L25.0287 3.48397C23.9579 4.18849 22.9688 4.83097 22.2376 5.30008C21.872 5.53466 21.5711 5.72578 21.3567 5.85959C21.2495 5.92653 21.1643 5.97894 21.1035 6.01522C21.0731 6.0334 21.0493 6.04725 21.0322 6.05676C21.0236 6.06155 21.0172 6.06492 21.0128 6.06711C21.0067 6.07017 21.0084 6.0689 21.0136 6.06741L21.0557 6.21485ZM20.8227 4.4387C20.8227 5.10916 20.8311 5.54621 20.8525 5.81188C20.8631 5.94336 20.8773 6.03938 20.8978 6.10195C20.9077 6.1322 20.9222 6.16471 20.9467 6.18812C20.96 6.20084 20.9774 6.21195 20.9989 6.21698C21.0207 6.22206 21.0413 6.21973 21.0589 6.21386L21.0104 6.0684C21.0153 6.06676 21.0238 6.06532 21.0338 6.06767C21.0437 6.06999 21.05 6.07477 21.0527 6.07732C21.0559 6.08038 21.0511 6.07713 21.0435 6.05418C21.0292 6.01035 21.0159 5.93021 21.0054 5.79955C20.9845 5.54096 20.976 5.10989 20.976 4.4387H20.8227ZM20.8227 2.69116V4.4387H20.976V2.69116H20.8227ZM13.3455 2.76783H20.8993V2.61449H13.3455V2.76783ZM13.3996 11.2261L13.4221 2.69136L13.2688 2.69096L13.2463 11.2257L13.3996 11.2261ZM1.04209 19.385L13.365 11.29L13.2808 11.1618L0.957907 19.2568L1.04209 19.385ZM5.73708 19.357L1.00182 19.2443L0.998175 19.3976L5.73343 19.5103L5.73708 19.357ZM5.86829 60.3033L5.81192 19.4336L5.65859 19.4338L5.71496 60.3035L5.86829 60.3033ZM52.2422 60.2267H5.79163V60.3801H52.2422V60.2267ZM52.1655 19.3773V60.3034H52.3189V19.3773H52.1655ZM56.9991 19.2443L52.2413 19.3006L52.2431 19.454L57.0009 19.3976L56.9991 19.2443ZM51.8095 16.0152C53.6909 17.2471 55.4345 18.3887 56.958 19.3851L57.042 19.2568C55.5184 18.2604 53.7749 17.1188 51.8935 15.8869L51.8095 16.0152ZM40.1029 8.35875C44.1271 10.9849 48.2194 13.6644 51.8095 16.0152L51.8935 15.8869C48.3034 13.5361 44.211 10.8566 40.1867 8.23034L40.1029 8.35875ZM28.9831 1.07667C28.9756 1.0763 28.9645 1.07438 28.9609 1.07338C28.9589 1.07271 28.9554 1.07145 28.9541 1.07093C28.9517 1.06994 28.9501 1.06909 28.9497 1.06892C28.9488 1.06845 28.9486 1.06831 28.9496 1.0689C28.9515 1.06994 28.9547 1.07186 28.9597 1.07492C28.9695 1.08094 28.9842 1.09014 29.0039 1.10259C29.0431 1.12743 29.1009 1.1645 29.1765 1.21325C29.3277 1.31071 29.5493 1.45448 29.8339 1.63961C30.403 2.00986 31.2235 2.54536 32.2347 3.20631C34.257 4.52821 37.0417 6.35182 40.1027 8.35866L40.1868 8.23043C37.1258 6.22357 34.341 4.39992 32.3186 3.07797C31.3074 2.41699 30.4868 1.88142 29.9175 1.51108C29.6329 1.32592 29.4111 1.18202 29.2596 1.08438C29.1839 1.03558 29.1257 0.998239 29.0859 0.97306C29.0661 0.960502 29.0506 0.950792 29.0397 0.944146C29.0344 0.940874 29.0297 0.938035 29.0259 0.935888C29.0242 0.934883 29.0218 0.933545 29.0193 0.932282C29.0182 0.93171 29.0159 0.930558 29.013 0.929366C29.0115 0.928753 29.0079 0.927419 29.0056 0.926697C29.0018 0.925649 28.9906 0.923701 28.9831 0.923333V1.07667ZM26.3118 2.82951C27.0931 2.31949 27.7691 1.87819 28.2509 1.56439C28.4918 1.40749 28.6841 1.28251 28.8167 1.19677C28.883 1.15389 28.9343 1.12091 28.9692 1.09869C28.9867 1.08755 28.9998 1.07927 29.0086 1.07385C29.013 1.07109 29.0159 1.06935 29.0175 1.06841C29.0185 1.06788 29.0182 1.06803 29.0174 1.06847C29.0171 1.06864 29.0155 1.06947 29.0132 1.07045C29.0122 1.07092 29.0098 1.07193 29.0066 1.07295C29.0054 1.07334 28.9958 1.07667 28.9831 1.07667V0.923333C28.9703 0.923333 28.9606 0.926686 28.9593 0.927113C28.956 0.928186 28.9534 0.929267 28.9521 0.929823C28.9494 0.930985 28.9473 0.932091 28.9463 0.932613C28.9441 0.933786 28.9419 0.935017 28.9403 0.935925C28.937 0.937873 28.9328 0.940442 28.928 0.94339C28.9183 0.949382 28.9045 0.958114 28.8868 0.969346C28.8514 0.991866 28.7998 1.02508 28.7334 1.06801C28.6006 1.15389 28.4081 1.27899 28.1672 1.43591C27.6853 1.74976 27.0092 2.19112 26.228 2.70111L26.3118 2.82951ZM25.1128 3.61222C25.5304 3.33966 25.9335 3.07653 26.3118 2.82951L26.228 2.70111C25.8496 2.94813 25.4466 3.21126 25.029 3.48381L25.1128 3.61222ZM26.8933 16.7779C26.3946 16.8346 25.5807 16.9703 25.0844 17.0605L25.1118 17.2114C25.6076 17.1212 26.4172 16.9863 26.9106 16.9303L26.8933 16.7779ZM29.4406 16.7211C28.5378 16.6985 27.3948 16.7209 26.8933 16.7779L26.9106 16.9303C27.4013 16.8745 28.5357 16.8518 29.4368 16.8743L29.4406 16.7211ZM32.3833 16.9928C31.6686 16.868 30.3457 16.7437 29.4406 16.7211L29.4368 16.8743C30.3357 16.8968 31.6509 17.0206 32.3569 17.1438L32.3833 16.9928ZM35.0418 17.6263C34.2947 17.3999 33.0966 17.1173 32.3833 16.9928L32.3569 17.1438C33.0641 17.2673 34.2562 17.5484 34.9973 17.773L35.0418 17.6263ZM37.7589 18.6905C37.0111 18.3279 35.7897 17.8529 35.0418 17.6263L34.9973 17.773C35.7376 17.9974 36.9515 18.4694 37.692 18.8284L37.7589 18.6905ZM40.135 19.9918C39.5789 19.6287 38.5046 19.0407 37.758 18.6901L37.6928 18.8288C38.4345 19.1772 39.5023 19.7618 40.0511 20.1202L40.135 19.9918ZM41.9447 21.3038C41.5035 20.9531 40.6898 20.3541 40.135 19.9918L40.0511 20.1202C40.6012 20.4794 41.411 21.0755 41.8492 21.4239L41.9447 21.3038ZM43.8232 23.0689C43.2249 22.4594 42.3884 21.6679 41.9456 21.3046L41.8483 21.4231C42.2849 21.7813 43.117 22.5683 43.7138 23.1763L43.8232 23.0689ZM45.4193 24.869C45.1346 24.4931 44.4102 23.6898 43.8242 23.07L43.7128 23.1753C44.2993 23.7957 45.0181 24.5933 45.2971 24.9616L45.4193 24.869ZM46.5853 26.6236C46.2346 26.0353 45.7032 25.2437 45.4193 24.869L45.2971 24.9616C45.5769 25.331 46.1053 26.1178 46.4536 26.7021L46.5853 26.6236ZM47.6603 28.6041C47.4332 28.1044 46.9467 27.2108 46.5847 26.6226L46.4542 26.703C46.8138 27.2873 47.2969 28.1751 47.5207 28.6676L47.6603 28.6041ZM48.3841 30.357C48.2142 29.8927 47.8865 29.1016 47.6603 28.6041L47.5207 28.6676C47.7456 29.1622 48.0717 29.9496 48.2401 30.4097L48.3841 30.357ZM48.9727 32.3375C48.8145 31.7163 48.5545 30.8228 48.3841 30.357L48.2401 30.4097C48.4079 30.8684 48.6665 31.7563 48.8241 32.3753L48.9727 32.3375ZM49.4141 34.748C49.3235 34.0462 49.1201 32.9612 48.973 32.3388L48.8237 32.374C48.9698 32.9918 49.1722 34.0715 49.262 34.7677L49.4141 34.748ZM49.5838 37.3171C49.5838 36.6034 49.5047 35.4388 49.4141 34.7479L49.262 34.7678C49.3518 35.4524 49.4305 36.6103 49.4305 37.3171H49.5838ZM49.4141 39.8975C49.5047 39.1955 49.5838 38.0309 49.5838 37.3171H49.4305C49.4305 38.0239 49.3518 39.1819 49.262 39.8779L49.4141 39.8975ZM48.973 42.2955C49.1201 41.6731 49.3235 40.5882 49.4141 39.8977L49.262 39.8777C49.1722 40.5627 48.9698 41.6425 48.8237 42.2602L48.973 42.2955ZM48.3841 44.2772C48.5545 43.8115 48.8145 42.9179 48.9727 42.2968L48.8241 42.259C48.6665 42.878 48.4079 43.7658 48.2401 44.2246L48.3841 44.2772ZM47.6603 46.0301C47.8865 45.5326 48.2142 44.7416 48.3841 44.2772L48.2401 44.2246C48.0717 44.6847 47.7456 45.4721 47.5207 45.9667L47.6603 46.0301ZM46.6982 47.8413C46.9921 47.3439 47.4333 46.5296 47.6603 46.0301L47.5207 45.9667C47.2968 46.4594 46.8585 47.2686 46.5662 47.7633L46.6982 47.8413ZM45.567 49.5382C45.8836 49.0972 46.392 48.3403 46.6975 47.8424L46.5669 47.7622C46.2635 48.2565 45.7572 49.0104 45.4425 49.4488L45.567 49.5382ZM44.3331 51.0665C44.6952 50.6591 45.2494 49.9806 45.567 49.5382L45.4425 49.4488C45.1287 49.8858 44.578 50.5602 44.2185 50.9646L44.3331 51.0665ZM42.7035 52.6849C43.2459 52.199 43.9814 51.475 44.3339 51.0656L44.2178 50.9655C43.8713 51.3679 43.1411 52.087 42.6012 52.5707L42.7035 52.6849ZM40.4733 54.4056C41.1646 53.9523 42.1598 53.172 42.7035 52.6849L42.6012 52.5707C42.0625 53.0532 41.0734 53.8287 40.3892 54.2774L40.4733 54.4056ZM37.814 55.9105C38.5959 55.5479 39.7832 54.8694 40.474 54.4051L40.3885 54.2779C39.7038 54.7381 38.5235 55.4125 37.7495 55.7714L37.814 55.9105ZM35.324 56.929C35.9153 56.747 37.0353 56.283 37.8149 55.9101L37.7487 55.7718C36.9724 56.1431 35.86 56.6036 35.2789 56.7824L35.324 56.929ZM33.1179 57.5059C33.7409 57.3813 34.736 57.1212 35.3252 56.9286L35.2776 56.7828C34.6943 56.9735 33.7051 57.2321 33.0879 57.3555L33.1179 57.5059ZM30.4596 57.8679C31.2967 57.8 32.4947 57.6305 33.1179 57.5059L33.0879 57.3555C32.4709 57.4789 31.2788 57.6476 30.4472 57.715L30.4596 57.8679ZM27.4027 57.8678C28.5797 57.9697 29.2831 57.9697 30.46 57.8678L30.4468 57.7151C29.2787 57.8162 28.5841 57.8162 27.4159 57.7151L27.4027 57.8678ZM24.5741 57.4491C25.2885 57.6079 26.5659 57.7887 27.4021 57.8678L27.4165 57.7151C26.5841 57.6364 25.3135 57.4564 24.6074 57.2995L24.5741 57.4491ZM22.4238 56.8719C22.8898 57.031 23.8624 57.291 24.5741 57.4491L24.6074 57.2995C23.8985 57.1419 22.9319 56.8833 22.4734 56.7268L22.4238 56.8719ZM20.6147 56.1708C21.1458 56.3969 21.9594 56.7133 22.4238 56.8719L22.4734 56.7268C22.0133 56.5697 21.2033 56.2547 20.6747 56.0298L20.6147 56.1708ZM18.576 55.1176C19.1653 55.4689 20.0812 55.9325 20.6134 56.1703L20.676 56.0303C20.1484 55.7946 19.2379 55.3337 18.6545 54.9859L18.576 55.1176ZM16.541 53.7722C17.0724 54.1567 17.9875 54.7668 18.576 55.1176L18.6545 54.9859C18.0705 54.6378 17.1592 54.0302 16.6308 53.648L16.541 53.7722ZM14.4351 51.9158C15.0677 52.5371 16.0062 53.3741 16.5401 53.7716L16.6317 53.6486C16.1057 53.257 15.1728 52.4254 14.5426 51.8064L14.4351 51.9158ZM12.613 49.8786C12.9988 50.3778 13.8128 51.2935 14.4346 51.9153L14.5431 51.8069C13.9247 51.1886 13.1153 50.2778 12.7343 49.7848L12.613 49.8786ZM11.4586 48.2149C11.7194 48.6345 12.2394 49.3805 12.6123 49.8777L12.735 49.7857C12.3638 49.2908 11.8466 48.5486 11.5888 48.1339L11.4586 48.2149ZM10.5538 46.5752C10.8024 47.0497 11.2088 47.7835 11.4573 48.2128L11.59 48.136C11.3425 47.7084 10.9371 46.9765 10.6896 46.504L10.5538 46.5752ZM9.81842 44.9801C9.98812 45.3761 10.3156 46.0875 10.5528 46.5732L10.6906 46.506C10.4543 46.0221 10.1279 45.313 9.95936 44.9197L9.81842 44.9801ZM9.19508 43.122C9.37595 43.755 9.6587 44.5922 9.818 44.9791L9.95978 44.9207C9.8034 44.5409 9.52243 43.7095 9.34252 43.0798L9.19508 43.122ZM8.67488 40.9957C8.7768 41.528 9.00289 42.4776 9.19533 43.1228L9.34227 43.079C9.15138 42.439 8.92649 41.4944 8.82548 40.9669L8.67488 40.9957ZM8.40314 38.6758C8.45966 39.4218 8.58392 40.4615 8.6746 40.9942L8.82576 40.9684C8.73604 40.4414 8.61227 39.4065 8.55604 38.6643L8.40314 38.6758ZM8.40317 35.9242C8.3352 36.7626 8.33518 37.8604 8.40319 38.6764L8.55599 38.6637C8.4887 37.8562 8.48869 36.7668 8.55601 35.9366L8.40317 35.9242ZM8.73132 33.3901C8.60661 34.025 8.45969 35.1669 8.40314 35.9247L8.55605 35.9361C8.61224 35.1831 8.75845 34.0475 8.88178 33.4197L8.73132 33.3901ZM9.3083 31.0936C9.11585 31.7162 8.85584 32.7449 8.73127 33.3904L8.88183 33.4194C9.00529 32.7797 9.26391 31.7564 9.45479 31.1388L9.3083 31.0936ZM10.3043 28.6032C9.95385 29.3493 9.50135 30.469 9.3083 31.0936L9.45479 31.1388C9.64507 30.5232 10.0945 29.4105 10.4431 28.6684L10.3043 28.6032ZM11.4471 26.4535C11.1746 26.8964 10.6659 27.8574 10.3047 28.6024L10.4427 28.6693C10.803 27.9261 11.3091 26.9704 11.5777 26.5339L11.4471 26.4535ZM12.6123 24.7565C12.2393 25.2539 11.7079 26.0227 11.4468 26.454L11.578 26.5334C11.8356 26.1078 12.3639 25.3434 12.735 24.8485L12.6123 24.7565ZM14.4346 22.7189C13.8128 23.3408 12.9988 24.2565 12.613 24.7557L12.7343 24.8494C13.1153 24.3565 13.9247 23.4457 14.5431 22.8274L14.4346 22.7189ZM16.5401 20.8626C16.0062 21.2602 15.0677 22.0972 14.4351 22.7184L14.5426 22.8278C15.1728 22.2089 16.1057 21.3773 16.6317 20.9856L16.5401 20.8626ZM18.577 19.5161C17.9878 19.856 17.0721 20.4665 16.5401 20.8626L16.6317 20.9856C17.1595 20.5926 18.0702 19.9854 18.6536 19.6489L18.577 19.5161ZM20.8965 18.3507C20.2061 18.645 19.1657 19.1651 18.576 19.5166L18.6545 19.6483C19.2374 19.3009 20.2715 18.7837 20.9566 18.4917L20.8965 18.3507ZM23.1604 17.5357C22.604 17.6947 21.5864 18.0679 20.8975 18.3503L20.9556 18.4922C21.6422 18.2108 22.6539 17.8399 23.2025 17.6832L23.1604 17.5357ZM25.0827 17.0608C24.5845 17.1627 23.7145 17.3774 23.1604 17.5357L23.2025 17.6832C23.7533 17.5258 24.6195 17.3121 25.1134 17.211L25.0827 17.0608ZM28.9336 27.215L28.9111 33.089L29.0644 33.0895L29.087 27.2156L28.9336 27.215ZM28.9449 21.3299L28.9336 27.2151L29.087 27.2154L29.0982 21.3302L28.9449 21.3299ZM30.1656 21.3325L29.0269 21.2536L29.0163 21.4065L30.155 21.4854L30.1656 21.3325ZM32.5554 21.6835C31.8767 21.5365 30.8013 21.3665 30.1644 21.3324L30.1562 21.4855C30.782 21.519 31.8487 21.6873 32.523 21.8334L32.5554 21.6835ZM34.9353 22.4314C34.3118 22.182 33.2482 21.8425 32.5563 21.6837L32.522 21.8332C33.2056 21.9901 34.2617 22.3271 34.8783 22.5738L34.9353 22.4314ZM37.088 23.4851C36.5319 23.156 35.5588 22.6808 34.9353 22.4314L34.8783 22.5738C35.495 22.8204 36.4611 23.2922 37.0099 23.6171L37.088 23.4851ZM38.9573 24.7767C38.4919 24.4021 37.6547 23.8251 37.0884 23.4854L37.0095 23.6168C37.5707 23.9535 38.402 24.5265 38.8612 24.8961L38.9573 24.7767ZM40.6659 26.3268C39.9989 25.6598 39.4218 25.1505 38.9573 24.7767L38.8612 24.8961C39.3211 25.2663 39.8941 25.7718 40.5575 26.4352L40.6659 26.3268ZM35.3173 29.5365L40.6501 26.4473L40.5732 26.3146L35.2404 29.4038L35.3173 29.5365ZM29.0252 33.1561C29.7699 32.7387 32.386 31.2389 35.3174 29.5365L35.2404 29.4039C32.309 31.1063 29.6938 32.6055 28.9503 33.0224L29.0252 33.1561ZM23.7878 22.1482C23.1313 22.3746 22.1575 22.7821 21.634 23.0666L21.7073 23.2013C22.221 22.9221 23.1864 22.5178 23.8378 22.2932L23.7878 22.1482ZM25.1883 21.7494C25.1492 21.7494 25.08 21.7634 24.9982 21.7831C24.9126 21.8037 24.8033 21.8333 24.678 21.8694C24.4274 21.9416 24.1106 22.0406 23.7885 22.148L23.837 22.2934C24.1576 22.1866 24.4722 22.0883 24.7205 22.0168C24.8447 21.981 24.9516 21.9521 25.0341 21.9322C25.1204 21.9114 25.171 21.9028 25.1883 21.9028V21.7494ZM25.4679 28.478C25.4679 25.3444 25.4651 23.6799 25.4382 22.799C25.4249 22.3603 25.4055 22.1098 25.3759 21.9683C25.3613 21.8986 25.3422 21.8438 25.3113 21.8062C25.2744 21.7613 25.2288 21.7494 25.1883 21.7494V21.9028C25.1957 21.9028 25.1923 21.9029 25.1928 21.9035C25.1992 21.9113 25.2124 21.9354 25.2258 21.9997C25.2522 22.1259 25.2716 22.363 25.285 22.8037C25.3117 23.6816 25.3145 25.343 25.3145 28.478H25.4679ZM25.2785 35.2066C25.3089 35.2066 25.3288 35.1901 25.3377 35.1805C25.3466 35.1709 25.3517 35.161 25.3544 35.1553C25.3598 35.1434 25.3633 35.1305 25.3657 35.1199C25.3707 35.0976 25.375 35.0672 25.379 35.0308C25.3869 34.9571 25.3943 34.8484 25.4012 34.7063C25.415 34.4214 25.427 33.997 25.4369 33.4373C25.4566 32.3176 25.4679 30.6541 25.4679 28.478H25.3145C25.3145 30.6538 25.3033 32.3163 25.2836 33.4346C25.2737 33.9939 25.2617 34.4164 25.248 34.6988C25.2412 34.8403 25.234 34.9453 25.2265 35.0144C25.2227 35.0493 25.2191 35.0726 25.2161 35.0861C25.2144 35.0935 25.2138 35.094 25.2151 35.0911C25.2157 35.0898 25.2187 35.0833 25.2255 35.076C25.2324 35.0686 25.2502 35.0532 25.2785 35.0532V35.2066ZM15.0818 29.39C18.9715 31.6392 21.4943 33.0909 23.0532 33.9803C23.8326 34.4249 24.3713 34.7292 24.7195 34.9223C24.8935 35.0188 25.0203 35.0878 25.106 35.1328C25.1487 35.1552 25.1819 35.1721 25.2059 35.1834C25.2178 35.189 25.2284 35.1938 25.2372 35.1973C25.2416 35.199 25.2466 35.2009 25.2517 35.2024C25.2549 35.2034 25.2656 35.2066 25.2785 35.2066V35.0532C25.2849 35.0532 25.2897 35.0541 25.2915 35.0545C25.2937 35.0549 25.2951 35.0554 25.2956 35.0555C25.2964 35.0557 25.2959 35.0556 25.2937 35.0547C25.2894 35.053 25.2822 35.0499 25.2715 35.0448C25.2504 35.0348 25.2194 35.0192 25.1773 34.997C25.0932 34.9529 24.9676 34.8846 24.7939 34.7882C24.4465 34.5956 23.9085 34.2917 23.1292 33.8471C21.5707 32.9579 19.0483 31.5065 15.1586 29.2572L15.0818 29.39ZM15.2485 28.9986L15.0568 29.2805L15.1836 29.3667L15.3753 29.0848L15.2485 28.9986ZM15.8782 28.0868C15.5991 28.4863 15.3318 28.869 15.2474 29.0003L15.3764 29.0832C15.4587 28.9551 15.7234 28.5762 16.0039 28.1746L15.8782 28.0868ZM15.878 28.0871L15.8779 28.0872L16.0043 28.1741L16.0044 28.174L15.878 28.0871ZM16.0608 27.8253L15.8783 28.0866L16.004 28.1744L16.1865 27.9131L16.0608 27.8253ZM17.8968 25.7846C17.2412 26.4177 16.4147 27.3344 16.0615 27.8244L16.1858 27.914C16.5316 27.4344 17.3511 26.5247 18.0034 25.895L17.8968 25.7846ZM19.8806 24.1074C19.4353 24.4043 18.5521 25.152 17.8968 25.7846L18.0034 25.895C18.656 25.2648 19.5316 24.5244 19.9656 24.235L19.8806 24.1074ZM21.6347 23.0663C21.1033 23.3489 20.3114 23.8126 19.8798 24.1079L19.9664 24.2345C20.3917 23.9435 21.1782 23.4827 21.7067 23.2016L21.6347 23.0663ZM32.5443 35.3199C32.5533 35.3469 32.5443 35.3686 32.5416 35.3746C32.538 35.3826 32.5339 35.3879 32.5324 35.3896C32.5293 35.3936 32.5269 35.3955 32.5279 35.3946C32.5291 35.3935 32.533 35.3904 32.5409 35.3847C32.5561 35.3737 32.5801 35.3575 32.6133 35.336C32.6795 35.2932 32.7783 35.2316 32.9066 35.1532C33.1632 34.9966 33.5359 34.7738 33.9974 34.5011C34.9201 33.9559 36.1967 33.212 37.6058 32.4003L37.5293 32.2674C36.1198 33.0793 34.8428 33.8235 33.9194 34.3691C33.4577 34.6419 33.0842 34.8651 32.8267 35.0224C32.6981 35.1009 32.5979 35.1633 32.53 35.2073C32.4962 35.2292 32.4695 35.2471 32.451 35.2604C32.4421 35.2669 32.4334 35.2735 32.4265 35.2796C32.4234 35.2824 32.418 35.2872 32.413 35.2935C32.4106 35.2965 32.4058 35.3027 32.4018 35.3115C32.3987 35.3184 32.3896 35.3408 32.3988 35.3684L32.5443 35.3199ZM38.2938 38.6714C36.7098 37.7526 35.2668 36.9127 34.2184 36.2983C33.6942 35.9911 33.2688 35.7404 32.9738 35.5644C32.8262 35.4763 32.7116 35.4072 32.6336 35.359C32.5946 35.3349 32.5652 35.3164 32.5457 35.3036C32.5358 35.2971 32.5292 35.2926 32.5255 35.2898C32.5235 35.2883 32.5234 35.2882 32.5243 35.289C32.5247 35.2894 32.5267 35.291 32.5291 35.2937C32.5294 35.2941 32.5389 35.3038 32.5443 35.3199L32.3988 35.3684C32.4043 35.385 32.4143 35.3954 32.4155 35.3967C32.4187 35.4002 32.4217 35.403 32.4236 35.4046C32.4274 35.4079 32.4315 35.411 32.4348 35.4134C32.4417 35.4185 32.4509 35.4247 32.4614 35.4317C32.4828 35.4458 32.5137 35.4652 32.5531 35.4895C32.6321 35.5383 32.7475 35.6079 32.8952 35.6961C33.1907 35.8724 33.6165 36.1234 34.1409 36.4306C35.1895 37.0451 36.6328 37.8852 38.2168 38.804L38.2938 38.6714ZM44.1366 42.0119C44.144 42.0137 44.1491 42.0164 44.1461 42.015C44.1453 42.0146 44.1437 42.0138 44.1409 42.0124C44.1353 42.0096 44.1271 42.0053 44.116 41.9993C44.0939 41.9874 44.062 41.9699 44.0208 41.947C43.9384 41.9012 43.8194 41.8343 43.6678 41.7484C43.3646 41.5767 42.9314 41.3298 42.4001 41.0261C41.3375 40.4187 39.8832 39.5845 38.2935 38.6712L38.2171 38.8042C39.8068 39.7174 41.2613 40.5518 42.324 41.1592C42.8553 41.4629 43.2888 41.71 43.5923 41.8818C43.744 41.9677 43.8634 42.0349 43.9463 42.081C43.9877 42.1041 44.0203 42.122 44.0434 42.1344C44.0549 42.1405 44.0644 42.1455 44.0716 42.1492C44.0752 42.151 44.0787 42.1528 44.0819 42.1542C44.0828 42.1546 44.0906 42.1584 44.0994 42.1606L44.1366 42.0119ZM44.3154 41.4998C44.2652 41.6614 44.2129 41.8014 44.1671 41.8985C44.1439 41.9475 44.1239 41.9822 44.1085 42.0029C44.1005 42.0135 44.0964 42.0168 44.0964 42.0168C44.0967 42.0166 44.0998 42.0143 44.1056 42.0124C44.1119 42.0104 44.1216 42.0088 44.133 42.011L44.103 42.1614C44.1404 42.1689 44.1705 42.1526 44.1869 42.1405C44.2043 42.1278 44.219 42.1111 44.2311 42.0949C44.2558 42.062 44.281 42.0164 44.3057 41.9639C44.3557 41.858 44.4105 41.7106 44.4618 41.5452L44.3154 41.4998ZM44.6516 39.9632C44.55 40.4822 44.404 41.1784 44.3147 41.5021L44.4625 41.5429C44.5536 41.2127 44.7007 40.5109 44.8021 39.9926L44.6516 39.9632ZM44.8193 37.3284C44.8193 38.3179 44.7405 39.396 44.6511 39.966L44.8026 39.9898C44.8935 39.4098 44.9726 38.3233 44.9726 37.3284H44.8193ZM44.6399 34.6352C44.7405 35.2385 44.8193 36.3051 44.8193 37.3284H44.9726C44.9726 36.2998 44.8936 35.2242 44.7912 34.61L44.6399 34.6352ZM44.034 32.3356C44.2698 33.0431 44.5394 34.0767 44.6401 34.6361L44.791 34.609C44.6888 34.041 44.4172 33.0001 44.1795 32.2871L44.034 32.3356ZM43.2039 30.226C43.427 30.6724 43.7977 31.6155 44.0339 32.3352L44.1796 32.2874C43.9422 31.564 43.5688 30.613 43.341 30.1574L43.2039 30.226ZM42.7764 29.4566C42.7653 29.4566 42.7571 29.454 42.7528 29.4523C42.7484 29.4505 42.7456 29.4488 42.7447 29.4482C42.7431 29.4471 42.744 29.4474 42.7476 29.451C42.7547 29.458 42.7655 29.4705 42.7801 29.4897C42.8089 29.5277 42.8469 29.5845 42.8914 29.6569C42.9802 29.8012 43.0919 30.0021 43.2039 30.226L43.341 30.1574C43.2275 29.9303 43.1136 29.7254 43.022 29.5765C42.9764 29.5024 42.9354 29.4408 42.9023 29.397C42.8859 29.3754 42.8699 29.3562 42.8551 29.3417C42.8479 29.3345 42.839 29.3267 42.829 29.3201C42.8211 29.3149 42.802 29.3033 42.7764 29.3033V29.4566ZM37.6058 32.4003C39.015 31.5886 40.3058 30.8502 41.2499 30.3148C41.7219 30.0471 42.1071 29.8302 42.377 29.6802C42.5121 29.6052 42.618 29.5472 42.6914 29.5079C42.7281 29.4882 42.7562 29.4736 42.7756 29.4639C42.7854 29.459 42.7921 29.4558 42.7963 29.454C42.7984 29.4531 42.7989 29.4529 42.7982 29.4532C42.7979 29.4533 42.7963 29.4539 42.7939 29.4545C42.7927 29.4548 42.7857 29.4566 42.7764 29.4566V29.3033C42.7605 29.3033 42.7473 29.3085 42.7469 29.3087C42.7426 29.3102 42.7383 29.312 42.7346 29.3136C42.7271 29.3169 42.7177 29.3214 42.7072 29.3267C42.6858 29.3373 42.6562 29.3528 42.619 29.3727C42.5445 29.4125 42.4378 29.4711 42.3026 29.5462C42.0321 29.6964 41.6464 29.9136 41.1742 30.1814C40.2298 30.717 38.9387 31.4556 37.5293 32.2674L37.6058 32.4003ZM13.4916 33.0988C13.4223 33.3069 13.286 33.9095 13.1737 34.4375L13.3237 34.4694C13.4368 33.9376 13.5711 33.3452 13.6371 33.1473L13.4916 33.0988ZM13.756 32.6856C13.7287 32.6856 13.7071 32.6971 13.6939 32.7062C13.6798 32.7158 13.6675 32.7279 13.6572 32.7397C13.6364 32.7635 13.6161 32.7949 13.5971 32.83C13.5586 32.9007 13.52 32.9964 13.4905 33.1025L13.6382 33.1436C13.6651 33.0468 13.6997 32.9621 13.7318 32.9032C13.748 32.8734 13.7622 32.8527 13.7727 32.8405C13.7781 32.8344 13.7807 32.8325 13.7804 32.8328C13.7801 32.833 13.7781 32.8343 13.7744 32.8357C13.7707 32.8371 13.7644 32.839 13.756 32.839V32.6856ZM19.5894 35.988C18.0164 35.0803 16.576 34.2572 15.5245 33.661C14.9987 33.3629 14.5701 33.1214 14.2708 32.9545C14.1211 32.871 14.0036 32.8061 13.9223 32.7619C13.8817 32.7399 13.8498 32.7228 13.8273 32.7112C13.8162 32.7055 13.8067 32.7007 13.7994 32.6973C13.7959 32.6956 13.7919 32.6938 13.7881 32.6922C13.7863 32.6915 13.7834 32.6904 13.78 32.6893C13.7791 32.6891 13.769 32.6856 13.756 32.6856V32.839C13.7485 32.839 13.7427 32.8378 13.7405 32.8373C13.7378 32.8367 13.7356 32.8361 13.7345 32.8358C13.7323 32.8351 13.7309 32.8345 13.7309 32.8345C13.7306 32.8344 13.7315 32.8347 13.734 32.8359C13.7387 32.8382 13.7463 32.8419 13.7569 32.8474C13.778 32.8583 13.8088 32.8748 13.8491 32.8967C13.9297 32.9404 14.0466 33.005 14.1961 33.0884C14.495 33.2551 14.9232 33.4963 15.4488 33.7943C16.5 34.3904 17.9401 35.2133 19.5127 36.1208L19.5894 35.988ZM25.3439 39.4142C25.3439 39.3884 25.3309 39.3711 25.3294 39.369C25.3255 39.3634 25.3215 39.3593 25.3195 39.3573C25.3151 39.3529 25.3104 39.3491 25.3072 39.3465C25.3001 39.3409 25.291 39.3344 25.2808 39.3275C25.26 39.3133 25.2298 39.2938 25.1914 39.2697C25.1143 39.2212 25.0011 39.152 24.8559 39.0645C24.5655 38.8896 24.1456 38.6407 23.6276 38.3362C22.5915 37.7273 21.1623 36.8957 19.5894 35.988L19.5127 36.1208C21.0854 37.0283 22.5143 37.8597 23.5499 38.4684C24.0677 38.7728 24.487 39.0213 24.7768 39.1959C24.9218 39.2832 25.034 39.3518 25.1098 39.3995C25.1478 39.4234 25.176 39.4416 25.1944 39.4542C25.2037 39.4606 25.2094 39.4647 25.2123 39.467C25.214 39.4683 25.2131 39.4677 25.2112 39.4658C25.2103 39.465 25.2074 39.462 25.2041 39.4573C25.2032 39.456 25.1905 39.4394 25.1905 39.4142H25.3439ZM20.3337 42.4118C21.7036 41.617 22.9496 40.8897 23.8517 40.3582C24.3027 40.0926 24.668 39.8757 24.9199 39.7238C25.0458 39.6479 25.1437 39.588 25.21 39.5463C25.243 39.5255 25.2689 39.5088 25.2866 39.4966C25.2953 39.4907 25.3033 39.485 25.3097 39.4799C25.3124 39.4777 25.3173 39.4736 25.3221 39.4686C25.3241 39.4664 25.3293 39.4607 25.334 39.4523C25.3356 39.4495 25.3545 39.4173 25.3358 39.3799L25.1986 39.4485C25.1801 39.4114 25.1989 39.3798 25.2001 39.3776C25.2044 39.3699 25.209 39.365 25.2101 39.3638C25.213 39.3607 25.215 39.3593 25.2137 39.3603C25.2121 39.3616 25.2079 39.3647 25.2 39.3701C25.1848 39.3805 25.1609 39.396 25.1283 39.4165C25.0633 39.4575 24.9664 39.5167 24.8408 39.5925C24.5895 39.744 24.2248 39.9605 23.7739 40.2261C22.8721 40.7573 21.6265 41.4844 20.2567 42.2792L20.3337 42.4118ZM15.2367 45.3182C15.2456 45.3165 15.253 45.3134 15.2551 45.3125C15.2587 45.311 15.2625 45.3093 15.2661 45.3076C15.2734 45.3042 15.2825 45.2996 15.2931 45.2941C15.3144 45.2832 15.3438 45.2674 15.3806 45.2474C15.4544 45.2072 15.5594 45.1489 15.6921 45.0744C15.9574 44.9254 16.3343 44.7114 16.7944 44.4485C17.7149 43.9228 18.9693 43.2012 20.3336 42.4119L20.2568 42.2792C18.8927 43.0683 17.6385 43.7898 16.7184 44.3154C16.2583 44.5782 15.8819 44.792 15.617 44.9407C15.4845 45.0151 15.3802 45.073 15.3073 45.1127C15.2708 45.1326 15.2426 45.1477 15.2228 45.1579C15.2129 45.163 15.2057 45.1666 15.2008 45.1689C15.1984 45.17 15.1972 45.1705 15.1969 45.1707C15.195 45.1714 15.1996 45.1693 15.2067 45.1679L15.2367 45.3182ZM14.7841 44.8319C14.8641 44.9632 14.945 45.0819 15.0142 45.1673C15.0485 45.2097 15.0818 45.2462 15.1122 45.2721C15.1273 45.285 15.1441 45.2974 15.1619 45.3062C15.1783 45.3144 15.2054 45.3245 15.2367 45.3182L15.2067 45.1679C15.2239 45.1644 15.2338 45.1707 15.2301 45.1689C15.2279 45.1678 15.2218 45.1641 15.2117 45.1555C15.1917 45.1384 15.1652 45.1102 15.1333 45.0708C15.07 44.9927 14.9931 44.8802 14.9151 44.7522L14.7841 44.8319ZM14.0908 43.2762C14.3273 43.8617 14.6334 44.5654 14.7829 44.8298L14.9164 44.7544C14.7727 44.5001 14.4701 43.8058 14.233 43.2188L14.0908 43.2762ZM13.5246 41.6905C13.6045 41.9646 13.8651 42.678 14.0902 43.2746L14.2336 43.2204C14.0078 42.6219 13.7497 41.9147 13.6718 41.6476L13.5246 41.6905ZM13.1847 40.2181C13.2865 40.7383 13.4448 41.4055 13.5244 41.6897L13.672 41.6484C13.5937 41.3689 13.4364 40.7058 13.3352 40.1887L13.1847 40.2181ZM12.9803 37.3284C12.9803 38.7166 13.0367 39.5122 13.1849 40.2191L13.335 40.1877C13.1901 39.4966 13.1337 38.7138 13.1337 37.3284H12.9803ZM13.1734 34.4387C13.0367 35.1338 12.9803 35.9402 12.9803 37.3284H13.1337C13.1337 35.9431 13.1901 35.1486 13.3239 34.4682L13.1734 34.4387ZM32.7421 52.7541C32.7794 52.7541 32.7924 52.7827 32.789 52.7766C32.7878 52.7744 32.7837 52.7651 32.7785 52.7434C32.7685 52.7012 32.7587 52.6315 32.7498 52.527C32.7321 52.3192 32.7187 51.9871 32.7089 51.4918C32.6891 50.502 32.6835 48.868 32.6835 46.2916H32.5302C32.5302 48.8676 32.5358 50.5032 32.5555 51.4948C32.5654 51.9903 32.5788 52.3268 32.597 52.5401C32.6061 52.6461 32.6166 52.7251 32.6294 52.7788C32.6356 52.805 32.6435 52.8306 32.6551 52.8512C32.6644 52.868 32.6908 52.9074 32.7421 52.9074V52.7541ZM33.9363 52.4082C33.6381 52.5039 33.3541 52.591 33.1352 52.6542C33.0257 52.6858 32.9329 52.7112 32.8631 52.7287C32.8281 52.7375 32.7994 52.744 32.7776 52.7484C32.7667 52.7506 32.758 52.7521 32.7514 52.753C32.7443 52.754 32.7417 52.7541 32.7421 52.7541V52.9074C32.7605 52.9074 32.7844 52.9034 32.8076 52.8988C32.8328 52.8937 32.8641 52.8865 32.9002 52.8775C32.9727 52.8593 33.0674 52.8333 33.1777 52.8015C33.3985 52.7378 33.6839 52.6502 33.9832 52.5542L33.9363 52.4082ZM36.1235 51.4997C35.5071 51.8135 34.5186 52.2179 33.9359 52.4084L33.9836 52.5541C34.5735 52.3612 35.5693 51.9539 36.1931 51.6363L36.1235 51.4997ZM38.0888 50.3542C37.6177 50.6682 36.7409 51.1854 36.1235 51.4997L36.1931 51.6363C36.8158 51.3193 37.6978 50.7992 38.1738 50.4818L38.0888 50.3542ZM40.1633 48.5482C39.4763 49.2239 38.5445 50.043 38.0881 50.3547L38.1745 50.4813C38.6426 50.1616 39.5824 49.3347 40.2708 48.6575L40.1633 48.5482ZM41.9793 46.4414C41.668 46.9195 40.8494 47.862 40.1628 48.5486L40.2713 48.657C40.9602 47.9682 41.7877 47.0166 42.1078 46.5251L41.9793 46.4414ZM42.5644 45.5249C42.5644 45.5134 42.5676 45.5068 42.5658 45.5118C42.5649 45.5143 42.563 45.519 42.5595 45.5264C42.5526 45.5409 42.5418 45.5615 42.5269 45.5879C42.4973 45.6404 42.4539 45.7122 42.3999 45.7985C42.292 45.9709 42.1431 46.1984 41.98 46.4404L42.1071 46.5261C42.2709 46.2833 42.4208 46.0542 42.5299 45.8799C42.5844 45.7928 42.6291 45.7187 42.6605 45.6631C42.6761 45.6355 42.6889 45.6113 42.6981 45.592C42.7026 45.5824 42.7069 45.5727 42.7101 45.5637C42.7124 45.5573 42.7177 45.5421 42.7177 45.5249H42.5644ZM41.8927 45.0954C42.0884 45.2072 42.2638 45.3187 42.3898 45.4072C42.453 45.4517 42.5024 45.4894 42.5353 45.518C42.552 45.5325 42.5627 45.5431 42.5686 45.5499C42.5716 45.5534 42.5719 45.5542 42.571 45.5526C42.5705 45.5518 42.5691 45.5493 42.5677 45.5453C42.5664 45.5415 42.5644 45.5344 42.5644 45.5249H42.7177C42.7177 45.502 42.7086 45.4844 42.7039 45.4761C42.6982 45.4662 42.6912 45.4573 42.6848 45.4499C42.6719 45.4349 42.6549 45.4187 42.6358 45.4022C42.5972 45.3687 42.5431 45.3276 42.478 45.2818C42.3474 45.19 42.1678 45.076 41.9688 44.9623L41.8927 45.0954ZM36.9655 42.2428C39.2882 43.5846 41.5089 44.8696 41.8919 45.0949L41.9696 44.9628C41.586 44.7371 39.3645 43.4516 37.0422 42.11L36.9655 42.2428ZM32.6858 39.8178C32.6777 39.8178 32.6718 39.8165 32.6701 39.8161C32.6677 39.8155 32.666 39.815 32.6654 39.8148C32.6643 39.8145 32.6643 39.8144 32.666 39.8151C32.6691 39.8164 32.6745 39.8188 32.6827 39.8228C32.6988 39.8306 32.7221 39.8425 32.7529 39.8586C32.8141 39.8908 32.9022 39.9385 33.0144 40.0002C33.2386 40.1235 33.5579 40.3019 33.9489 40.5224C34.7308 40.9634 35.7989 41.5721 36.9656 42.2429L37.0421 42.11C35.875 41.4391 34.8066 40.8301 34.0242 40.3889C33.633 40.1683 33.3132 39.9895 33.0882 39.8658C32.9758 39.804 32.8867 39.7558 32.8242 39.7229C32.793 39.7065 32.7678 39.6936 32.7494 39.6847C32.7403 39.6803 32.732 39.6765 32.725 39.6736C32.7216 39.6721 32.7174 39.6705 32.7131 39.6691C32.7117 39.6686 32.7 39.6645 32.6858 39.6645V39.8178ZM32.6835 46.2916C32.6835 44.4935 32.692 42.8562 32.706 41.6686C32.7131 41.0747 32.7215 40.5936 32.731 40.2611C32.7358 40.0947 32.7408 39.9662 32.7459 39.8797C32.7485 39.8361 32.7511 39.8045 32.7535 39.7844C32.7541 39.7795 32.7547 39.7756 32.7552 39.7726C32.7554 39.7712 32.7556 39.77 32.7558 39.7692C32.7559 39.7687 32.7559 39.7684 32.756 39.7682C32.756 39.768 32.756 39.7681 32.756 39.7679C32.7561 39.7678 32.756 39.7679 32.7561 39.7679C32.7561 39.7678 32.756 39.768 32.756 39.768C32.756 39.7679 32.7559 39.7683 32.7559 39.7683C32.7559 39.7685 32.7557 39.769 32.7555 39.7697C32.7552 39.7707 32.7543 39.7734 32.7526 39.7769C32.7512 39.7797 32.7473 39.7873 32.7396 39.7952C32.7318 39.8032 32.7136 39.8178 32.6858 39.8178V39.6645C32.6572 39.6645 32.6383 39.6794 32.6298 39.6881C32.6214 39.6968 32.6168 39.7054 32.6147 39.7097C32.6104 39.7186 32.6082 39.7271 32.6071 39.7316C32.6046 39.7418 32.6028 39.754 32.6013 39.766C32.5983 39.7909 32.5955 39.8263 32.5929 39.8705C32.5876 39.9595 32.5825 40.0899 32.5778 40.2567C32.5682 40.5905 32.5598 41.0726 32.5527 41.6668C32.5386 42.8552 32.5302 44.4931 32.5302 46.2916H32.6835ZM23.1694 44.7627L23.1674 44.7638L23.2444 44.8965L23.2464 44.8953L23.1694 44.7627ZM23.9321 44.3199L23.1694 44.7627L23.2464 44.8953L24.0091 44.4525L23.9321 44.3199ZM28.9483 41.5695C28.9272 41.5569 28.9066 41.5578 28.901 41.558C28.8925 41.5584 28.8849 41.5599 28.8796 41.5612C28.8689 41.5637 28.8572 41.5677 28.8461 41.5719C28.8232 41.5806 28.793 41.594 28.7568 41.6111C28.684 41.6455 28.581 41.6978 28.4519 41.7658C28.1934 41.9018 27.8267 42.1023 27.379 42.3519C26.4836 42.851 25.2628 43.5475 23.9321 44.3199L24.0091 44.4525C25.3393 43.6804 26.5593 42.9844 27.4537 42.4858C27.901 42.2364 28.2664 42.0367 28.5233 41.9015C28.6519 41.8338 28.7525 41.7827 28.8223 41.7497C28.8575 41.7331 28.8834 41.7218 28.9005 41.7153C28.9094 41.7119 28.9138 41.7107 28.9149 41.7104C28.9156 41.7102 28.9129 41.711 28.9082 41.7112C28.9064 41.7113 28.8887 41.7126 28.8694 41.701L28.9483 41.5695ZM29.0757 53.3382C29.0813 48.7044 29.0757 45.784 29.0602 44.0191C29.0524 43.1368 29.0422 42.5427 29.0297 42.1675C29.0234 41.9801 29.0165 41.8462 29.009 41.7579C29.0052 41.7141 29.0011 41.6795 28.9965 41.6545C28.9942 41.6424 28.9912 41.6294 28.9869 41.6178C28.9848 41.6121 28.9813 41.6037 28.9755 41.5951C28.9705 41.5878 28.9575 41.5707 28.9331 41.5625L28.8846 41.708C28.8623 41.7005 28.8513 41.6853 28.8485 41.6811C28.8447 41.6755 28.8433 41.6714 28.8432 41.6712C28.843 41.6706 28.8441 41.6736 28.8458 41.6827C28.849 41.7 28.8526 41.7286 28.8562 41.771C28.8634 41.8552 28.8702 41.9858 28.8764 42.1726C28.8889 42.5458 28.8991 43.1383 28.9069 44.0205C28.9224 45.7845 28.928 48.7042 28.9224 53.338L29.0757 53.3382ZM27.8887 53.3356L28.9936 53.4146L29.0045 53.2616L27.8996 53.1827L27.8887 53.3356ZM25.8832 53.075C26.3834 53.1773 27.2775 53.2904 27.8885 53.3356L27.8998 53.1827C27.2932 53.1378 26.4059 53.0254 25.9139 52.9247L25.8832 53.075ZM23.7885 52.4863C24.4326 52.701 25.3829 52.9726 25.8832 53.075L25.9139 52.9247C25.4221 52.8241 24.4782 52.5546 23.837 52.3409L23.7885 52.4863ZM21.634 51.579C22.1575 51.8635 23.1316 52.2711 23.7889 52.4864L23.8367 52.3407C23.1862 52.1276 22.221 51.7235 21.7073 51.4443L21.634 51.579ZM19.8798 50.5377C20.3114 50.833 21.1033 51.2967 21.6347 51.5793L21.7067 51.4439C21.1782 51.1629 20.3917 50.7021 19.9664 50.4111L19.8798 50.5377ZM17.2772 48.2863C18.6752 49.6167 19.4462 50.2524 19.881 50.5384L19.9653 50.4103C19.5431 50.1326 18.7808 49.5056 17.3829 48.1752L17.2772 48.2863ZM18.1937 47.6457L17.2918 48.1643L17.3682 48.2972L18.2702 47.7786L18.1937 47.6457ZM23.1664 44.7644C20.7925 46.1426 18.6419 47.3911 18.1941 47.6455L18.2698 47.7788C18.7185 47.5239 20.8701 46.2748 23.2434 44.897L23.1664 44.7644ZM23.1676 44.7637L23.1666 44.7643L23.2431 44.8972L23.2442 44.8966L23.1676 44.7637Z" fill="black"/>
</g>
</g>
</svg>
